<?xml version="1.0" encoding="utf-8"?>
<!-- Generator: Adobe Illustrator 25.2.1, SVG Export Plug-In . SVG Version: 6.00 Build 0)  -->
<svg version="1.1" xmlns="http://www.w3.org/2000/svg" xmlns:xlink="http://www.w3.org/1999/xlink" x="0px" y="0px"
	 viewBox="0 0 53 53.4" style="enable-background:new 0 0 53 53.4;" xml:space="preserve">
<style type="text/css">
	.st0{fill:#FFFFFF;}
	.st1{fill:#F6F5F5;}
	.st2{fill:#231F20;}
	.st3{fill:#2B3C41;}
	.st4{clip-path:url(#SVGID_2_);}
	.st5{clip-path:url(#SVGID_4_);}
	.st6{fill:#4B58A3;}
	.st7{fill:#D2A639;}
	.st8{fill:#1F968B;}
	.st9{fill:#6DB64C;}
	.st10{fill:#B5204D;}
	.st11{fill:#CCD7ED;}
	.st12{clip-path:url(#SVGID_6_);}
	.st13{fill:#EC365C;}
	.st14{fill:#939598;}
	.st15{fill:#7E8283;}
	.st16{fill:#332314;}
	.st17{fill:none;}
	.st18{fill:#F9F9F9;}
	.st19{fill:#DB1233;}
	.st20{fill:#27AAFE;stroke:#231F20;stroke-width:2;stroke-miterlimit:10;}
	.st21{fill:#F2CD16;}
	.st22{fill:#FE120C;}
	.st23{fill:#61B16C;}
	.st24{fill:none;stroke:#231F20;stroke-width:3.66;stroke-miterlimit:10;}
	.st25{fill:none;stroke:#231F20;stroke-width:3;stroke-linecap:round;stroke-miterlimit:10;}
	.st26{fill:#9E549E;}
	.st27{fill:#D1D0C8;stroke:#231F20;stroke-width:3.6666;stroke-miterlimit:10;}
	.st28{fill:#231F20;stroke:#231F20;stroke-width:3.6666;stroke-miterlimit:10;}
	.st29{fill:#FE120C;stroke:#231F20;stroke-width:3.6666;stroke-miterlimit:10;}
	.st30{fill:#F2CD16;stroke:#231F20;stroke-width:2;stroke-linecap:round;stroke-miterlimit:10;}
	.st31{fill:none;stroke:#FE120C;stroke-width:2;stroke-linecap:round;stroke-miterlimit:10;}
	.st32{fill:#FFFFFF;stroke:#231F20;stroke-width:2;stroke-miterlimit:10;}
	.st33{fill:#FE120C;stroke:#231F20;stroke-width:2;stroke-miterlimit:10;}
	.st34{fill:#130C0A;}
	.st35{fill:none;stroke:#231F20;stroke-width:2;stroke-linecap:round;stroke-miterlimit:10;}
	.st36{fill:#1A335A;}
	.st37{fill:#B93824;}
	.st38{fill:#E6E0DA;}
	.st39{fill:#B73828;}
	.st40{fill:#F2CD16;stroke:#231F20;stroke-width:2;stroke-linecap:round;stroke-linejoin:round;stroke-miterlimit:10;}
	.st41{fill:none;stroke:#FE120C;stroke-width:2;stroke-linecap:round;stroke-linejoin:round;stroke-miterlimit:10;}
	.st42{fill:#D1D0C8;stroke:#231F20;stroke-width:3;stroke-miterlimit:10;}
	.st43{fill:#FE120C;stroke:#231F20;stroke-width:3;stroke-miterlimit:10;}
	.st44{fill:#D1D0C8;}
	.st45{fill:#5D439C;}
	.st46{fill:#ED018C;}
	.st47{fill:#1A1818;}
	.st48{fill:#E2E0E3;}
	.st49{fill:#0D0299;}
	.st50{fill:url(#SVGID_9_);}
	.st51{fill:#27AAFE;}
	.st52{fill:#3C5AA5;}
	.st53{fill:#213364;}
	.st54{fill:url(#SVGID_10_);}
	.st55{fill:url(#SVGID_11_);}
	.st56{fill:url(#SVGID_12_);}
	.st57{fill:url(#l1_13_);}
	.st58{fill:url(#SVGID_13_);}
	.st59{fill:url(#SVGID_14_);}
	.st60{fill:url(#SVGID_15_);}
	.st61{fill:url(#SVGID_16_);}
	.st62{fill:url(#SVGID_17_);}
	.st63{fill:#3A62AC;}
	.st64{fill:url(#SVGID_18_);}
	.st65{fill:url(#SVGID_19_);}
	.st66{fill-opacity:0;stroke:#FFFFFF;stroke-width:3;}
	.st67{fill:#FFCC05;}
	.st68{fill:#B28E03;}
	.st69{fill:url(#SVGID_20_);}
	.st70{fill:url(#SVGID_21_);}
	.st71{fill:url(#SVGID_22_);}
	.st72{fill:url(#l1_14_);}
	.st73{fill:url(#SVGID_23_);}
	.st74{fill:url(#SVGID_24_);}
	.st75{fill:url(#SVGID_25_);}
	.st76{fill:url(#SVGID_26_);}
	.st77{fill:url(#SVGID_27_);}
	.st78{fill:url(#SVGID_28_);}
	.st79{fill:url(#SVGID_29_);}
	.st80{fill:none;stroke:#FFFFFF;stroke-miterlimit:10;}
	.st81{fill:none;stroke:#1A1818;stroke-width:3;stroke-miterlimit:10;}
	.st82{fill:#D1D0C8;stroke:#1A1818;stroke-width:3;stroke-miterlimit:10;}
	.st83{opacity:0.9;fill:#010216;}
	.st84{fill:#E8E8E8;}
	.st85{clip-path:url(#SVGID_33_);}
	.st86{fill:#CFDAFF;}
	.st87{fill:#0072D8;}
	.st88{fill:#070707;}
	.st89{fill:none;stroke:#070707;stroke-miterlimit:10;}
	.st90{fill:#A05B22;}
	.st91{fill:#D48233;}
	.st92{fill:url(#SVGID_34_);}
	.st93{fill:url(#SVGID_35_);}
	.st94{fill:url(#SVGID_36_);}
	.st95{fill:url(#l1_15_);}
	.st96{fill:url(#SVGID_37_);}
	.st97{fill:url(#SVGID_38_);}
	.st98{fill:url(#SVGID_39_);}
	.st99{fill:url(#SVGID_40_);}
	.st100{fill:url(#SVGID_41_);}
	.st101{fill:url(#SVGID_42_);}
	.st102{fill:url(#SVGID_43_);}
	.st103{fill:url(#SVGID_44_);}
	.st104{fill:url(#SVGID_45_);}
	.st105{fill:url(#SVGID_46_);}
	.st106{fill:url(#l1_16_);}
	.st107{fill:url(#SVGID_47_);}
	.st108{fill:url(#SVGID_48_);}
	.st109{fill:url(#SVGID_49_);}
	.st110{fill:url(#SVGID_50_);}
	.st111{fill:url(#SVGID_51_);}
	.st112{fill:url(#SVGID_52_);}
	.st113{fill:url(#SVGID_53_);}
	.st114{fill:#ED7C00;}
	.st115{fill:#5A5AFF;}
	.st116{fill:#D1D2D3;}
	.st117{fill:#7BAAAD;}
	.st118{enable-background:new    ;}
	.st119{fill:#FF1A1A;stroke:#231F20;stroke-miterlimit:10;}
	.st120{fill:#0068FF;}
	.st121{fill:#FFFFFF;stroke:#303030;stroke-width:0.25;stroke-miterlimit:10;}
	.st122{fill:url(#SVGID_74_);}
	.st123{fill:url(#SVGID_75_);}
	.st124{fill:url(#SVGID_76_);}
	.st125{fill:url(#SVGID_77_);}
	.st126{fill:url(#l1_17_);}
	.st127{fill:url(#SVGID_78_);}
	.st128{fill:url(#SVGID_79_);}
	.st129{fill:url(#SVGID_80_);}
	.st130{fill:url(#SVGID_81_);}
	.st131{fill:url(#SVGID_82_);}
	.st132{fill:url(#SVGID_83_);}
	.st133{fill:url(#SVGID_84_);}
	.st134{fill:url(#SVGID_85_);}
	.st135{fill:url(#SVGID_86_);}
	.st136{fill:url(#SVGID_87_);}
	.st137{fill:url(#l1_18_);}
	.st138{fill:url(#SVGID_88_);}
	.st139{fill:url(#SVGID_89_);}
	.st140{fill:url(#SVGID_90_);}
	.st141{fill:url(#SVGID_91_);}
	.st142{fill:url(#SVGID_92_);}
	.st143{fill:url(#SVGID_93_);}
	.st144{fill:url(#SVGID_94_);}
	.st145{fill:url(#SVGID_95_);}
	.st146{fill:#FF3E60;}
	.st147{fill:#010101;}
	.st148{fill:#222222;}
	.st149{fill:#0000FF;}
	.st150{fill:none;stroke:#FCFCFC;stroke-miterlimit:10;}
	.st151{fill:none;stroke:#231F20;stroke-miterlimit:10;}
	.st152{fill:none;stroke:#231F20;stroke-linecap:round;stroke-miterlimit:10;}
	.st153{fill:none;stroke:#231F20;stroke-width:4;stroke-miterlimit:10;}
	.st154{fill:#231F20;stroke:#FFFFFF;stroke-width:4;stroke-miterlimit:10;}
	.st155{fill:none;stroke:#858585;stroke-miterlimit:10;}
	.st156{fill:#858585;}
	.st157{fill:none;stroke:#C90027;stroke-miterlimit:10;}
	.st158{fill:#D8E5EA;}
	.st159{fill:#33363A;}
	.st160{fill:#95A2A5;}
	.st161{fill:#808E93;}
	.st162{fill:#A7BBC1;}
	.st163{fill:#0280FF;}
	.st164{fill:none;stroke:#0280FF;stroke-miterlimit:10;}
	.st165{fill:none;stroke:#0280FF;stroke-width:8;stroke-miterlimit:10;}
	.st166{fill:none;stroke:#0280FF;stroke-width:2;stroke-miterlimit:10;}
	.st167{fill:#D7E4EA;}
	.st168{fill:#92FF5A;}
	.st169{fill:none;stroke:#757575;stroke-miterlimit:10;}
	.st170{fill:#F4F4F4;}
	.st171{fill:#757575;}
	.st172{fill:none;stroke:#757575;stroke-width:1.0633;stroke-miterlimit:10;}
	.st173{fill:none;stroke:#757575;stroke-width:1.0148;stroke-miterlimit:10;}
	.st174{fill:#00AAFF;}
	.st175{fill:none;stroke:#D02100;stroke-miterlimit:10;}
	.st176{fill:none;stroke:#000000;stroke-miterlimit:10;}
	.st177{fill:#8FE3FE;}
	.st178{fill:#F1B653;}
	.st179{fill:none;stroke:#1A1818;stroke-width:1.5;stroke-miterlimit:10;}
	.st180{fill:none;stroke:#241F20;stroke-width:3;stroke-miterlimit:10;}
	.st181{fill:#241F20;}
	.st182{fill:#00ABFF;stroke:#231F20;stroke-miterlimit:10;}
	.st183{fill:#00ABFF;}
	.st184{fill:#C4750C;}
	.st185{fill:#C7D4D8;}
	.st186{fill:url(#SVGID_102_);}
	.st187{fill:url(#SVGID_103_);}
	.st188{fill:url(#SVGID_104_);}
	.st189{fill:url(#l1_19_);}
	.st190{fill:url(#SVGID_105_);}
	.st191{fill:url(#SVGID_106_);}
	.st192{fill:url(#SVGID_107_);}
	.st193{fill:url(#SVGID_108_);}
	.st194{fill:url(#SVGID_109_);}
	.st195{fill:url(#SVGID_110_);}
	.st196{fill:url(#SVGID_111_);}
	.st197{fill:url(#SVGID_112_);}
	.st198{fill:url(#SVGID_113_);}
	.st199{fill:url(#SVGID_114_);}
	.st200{fill:url(#l1_20_);}
	.st201{fill:url(#SVGID_115_);}
	.st202{fill:url(#SVGID_116_);}
	.st203{fill:url(#SVGID_117_);}
	.st204{fill:url(#SVGID_118_);}
	.st205{fill:url(#SVGID_119_);}
	.st206{fill:url(#SVGID_120_);}
	.st207{fill:url(#SVGID_121_);}
	.st208{fill:url(#SVGID_122_);stroke:#231F20;stroke-width:1.5;stroke-miterlimit:10;}
	.st209{fill:url(#SVGID_123_);}
	.st210{fill:url(#SVGID_124_);}
	.st211{fill:url(#SVGID_125_);}
	.st212{fill:url(#l1_21_);}
	.st213{fill:url(#SVGID_126_);}
	.st214{fill:url(#SVGID_127_);}
	.st215{fill:url(#SVGID_128_);}
	.st216{fill:url(#SVGID_129_);}
	.st217{fill:url(#SVGID_130_);}
	.st218{fill:url(#SVGID_131_);}
	.st219{fill:url(#SVGID_132_);}
	.st220{fill:url(#SVGID_133_);}
	.st221{fill:url(#SVGID_134_);}
	.st222{fill:url(#SVGID_135_);}
	.st223{fill:url(#l1_22_);}
	.st224{fill:url(#SVGID_136_);}
	.st225{fill:url(#SVGID_137_);}
	.st226{fill:url(#SVGID_138_);}
	.st227{fill:url(#SVGID_139_);}
	.st228{fill:url(#SVGID_140_);}
	.st229{fill:url(#SVGID_141_);}
	.st230{fill:url(#SVGID_142_);}
	.st231{fill:url(#SVGID_143_);stroke:#231F20;stroke-width:1.5;stroke-miterlimit:10;}
	.st232{fill:#C4750C;stroke:#7A4103;stroke-width:0.5;stroke-miterlimit:10;}
	.st233{fill:url(#SVGID_144_);}
	.st234{fill:url(#SVGID_145_);}
	.st235{fill:url(#SVGID_146_);}
	.st236{fill:url(#SVGID_147_);}
	.st237{fill:url(#l1_23_);}
	.st238{fill:url(#SVGID_148_);}
	.st239{fill:url(#SVGID_149_);}
	.st240{fill:url(#SVGID_150_);}
	.st241{fill:url(#SVGID_151_);}
	.st242{fill:url(#SVGID_152_);}
	.st243{fill:url(#SVGID_153_);}
	.st244{fill:url(#SVGID_154_);}
	.st245{fill:url(#SVGID_155_);}
	.st246{fill:url(#SVGID_156_);}
	.st247{fill:url(#SVGID_157_);}
	.st248{fill:url(#l1_24_);}
	.st249{fill:url(#SVGID_158_);}
	.st250{fill:url(#SVGID_159_);}
	.st251{fill:url(#SVGID_160_);}
	.st252{fill:url(#SVGID_161_);}
	.st253{fill:url(#SVGID_162_);}
	.st254{fill:url(#SVGID_163_);}
	.st255{fill:url(#SVGID_164_);}
	.st256{fill:url(#SVGID_165_);}
	.st257{fill:#FFFFFF;stroke:#303030;stroke-width:0.33;stroke-miterlimit:10;}
	.st258{fill:#0280FF;stroke:#0280FF;stroke-miterlimit:10;}
	.st259{fill:none;stroke:#000000;stroke-width:0.5;stroke-miterlimit:10;}
	.st260{fill:none;stroke:#303030;stroke-width:3;stroke-miterlimit:10;}
	.st261{fill:none;stroke:#000000;stroke-width:1.5;stroke-miterlimit:10;}
	.st262{fill:#627EF4;}
</style>
<g id="FOND">
</g>
<g id="Calque_3">
	<g>
		<linearGradient id="SVGID_2_" gradientUnits="userSpaceOnUse" x1="26.5245" y1="0.301" x2="26.5245" y2="25.5912">
			<stop  offset="0" style="stop-color:#F1B653"/>
			<stop  offset="0.4818" style="stop-color:#F0B451"/>
			<stop  offset="0.6553" style="stop-color:#ECAE4A"/>
			<stop  offset="0.779" style="stop-color:#E4A33F"/>
			<stop  offset="0.879" style="stop-color:#D9942E"/>
			<stop  offset="0.9637" style="stop-color:#CC8018"/>
			<stop  offset="1" style="stop-color:#C4750C"/>
		</linearGradient>
		<path style="fill:url(#SVGID_2_);" d="M48.9,6h-22l-6.2-5.2H4.2c-1.9,0-3.4,1.5-3.4,3.4v5.2v14.3v5.2c0,1.9,1.5,3.4,3.4,3.4h44.7
			c1.9,0,3.4-1.5,3.4-3.4V9.4C52.3,7.5,50.8,6,48.9,6z"/>
		<path class="st2" d="M48.9,33.1H4.2c-2.3,0-4.2-1.9-4.2-4.2V4.2C0,1.9,1.9,0,4.2,0h16.7l6.2,5.2h21.8c2.3,0,4.2,1.9,4.2,4.2v19.5
			C53,31.3,51.2,33.1,48.9,33.1z M4.2,1.5c-1.5,0-2.7,1.2-2.7,2.7v24.8c0,1.5,1.2,2.7,2.7,2.7h44.7c1.5,0,2.7-1.2,2.7-2.7V9.4
			c0-1.5-1.2-2.7-2.7-2.7H26.6l-6.2-5.2H4.2z"/>
	</g>
	<rect x="5.9" y="13.5" transform="matrix(0.975 -0.2224 0.2224 0.975 -4.5955 6.4036)" class="st0" width="40.5" height="20.2"/>
	<g>
		<g>
			<g>
				<path class="st52" d="M15.8,34l-5.1-7.9l-0.9,0.5l-2.7-3.9L13,19l4.3,8.3l3-2.3l2.7,4.5L15.8,34z M11.4,23.1l5.1,7.9l3.5-2.1
					l-0.3-0.4l-3.1,2.4l-4.4-8.5l-2,1.2l0.1,0.2L11.4,23.1z"/>
				<polygon points="21.5,28.9 20,26.4 16.9,28.8 12.5,20.4 8.7,22.8 10.3,24.7 11,24.3 16.1,32.2 				"/>
				<polygon points="11.9,20.7 16.5,28.6 16.9,28.8 12.5,20.4 				"/>
				<polygon points="20,27.7 20.9,29.3 21.5,28.9 20.6,27.4 20.2,27.6 				"/>
				<path class="st53" d="M23.1,29.6l-0.7,0.9l-7.1,4.5c0,0,0.4-0.8,0.5-0.9C15.9,33.9,23.1,29.6,23.1,29.6z"/>
				<path d="M12.3,21.4c0,0-3.3,1.9-3.3,1.9l-0.4-0.5l3.9-2.4l-0.3,0.7L12.3,21.4z"/>
				<g>
					
						<linearGradient id="SVGID_4_" gradientUnits="userSpaceOnUse" x1="332.3571" y1="-6226.2026" x2="333.9796" y2="-6226.2026" gradientTransform="matrix(0.9833 -0.1816 -0.1816 -0.9833 -1448.3921 -6035.1772)">
						<stop  offset="0" style="stop-color:#145A9F"/>
						<stop  offset="1" style="stop-color:#1D2E62"/>
					</linearGradient>
					<polygon style="fill:url(#SVGID_4_);" points="10.7,26.1 9.8,26.7 9.8,26.7 9.3,27.5 9.9,27 9.9,27 					"/>
					
						<linearGradient id="SVGID_6_" gradientUnits="userSpaceOnUse" x1="333.6298" y1="-6231.3984" x2="330.5432" y2="-6220.0811" gradientTransform="matrix(0.9833 -0.1816 -0.1816 -0.9833 -1448.3921 -6035.1772)">
						<stop  offset="0" style="stop-color:#145A9F"/>
						<stop  offset="1" style="stop-color:#1D2E62"/>
					</linearGradient>
					<polygon style="fill:url(#SVGID_6_);" points="7.1,22.8 6.5,23.5 9.3,27.5 9.3,27.5 9.8,26.7 					"/>
					
						<linearGradient id="SVGID_8_" gradientUnits="userSpaceOnUse" x1="332.848" y1="-6224.3149" x2="335.1096" y2="-6229.8364" gradientTransform="matrix(0.9833 -0.1816 -0.1816 -0.9833 -1448.3921 -6035.1772)">
						<stop  offset="0" style="stop-color:#145A9F"/>
						<stop  offset="1" style="stop-color:#1D2E62"/>
					</linearGradient>
					<polygon style="fill:url(#SVGID_8_);" points="15.8,34 10.7,26.1 9.9,27 15.3,34.9 					"/>
				</g>
			</g>
			<g>
				
					<linearGradient id="SVGID_9_" gradientUnits="userSpaceOnUse" x1="501.8238" y1="-6192.4272" x2="501.5377" y2="-6195.7817" gradientTransform="matrix(0.9898 -0.1425 -0.1425 -0.9898 -1349.7611 -6033.0518)">
					<stop  offset="0" style="stop-color:#145A9F"/>
					<stop  offset="1" style="stop-color:#1D2E62"/>
				</linearGradient>
				<polygon class="st50" points="29.4,25.4 29.4,28.7 30.1,28.1 29.9,24.7 				"/>
				<g>
					<g>
						<path class="st52" d="M36.1,27.8L32,28l-0.2,0.3l0-0.3l-1.7,0.1l-0.6-9.9l-0.9,0.3l0-3.3l5.5-1.4l0,8.9l1.8-0.2L36.1,27.8z
							 M33.4,25.6l0.4,0l0-0.6l0,0L33.4,25.6z M31.7,16.8l0.1,1.8l0-1.8L31.7,16.8z"/>
						<polyline points="34.9,26.4 34.8,23.5 32.9,23.7 33,23.7 32.9,15 29.7,15.8 29.7,16.7 30.5,16.4 31.2,26.6 						"/>
						<polygon points="32.9,23.7 32.6,23.8 32.3,15.2 32.9,15 						"/>
						<polygon points="32.6,15.5 29.7,16.2 29.7,15.8 32.4,15.2 32.5,15.5 						"/>
						<polygon points="34.3,23.5 34.8,23.5 34.9,26.4 34.3,26.5 						"/>
						<polygon class="st53" points="35.2,28.4 29.4,28.7 30.1,28.1 36.1,27.8 						"/>
					</g>
					
						<linearGradient id="SVGID_10_" gradientUnits="userSpaceOnUse" x1="501.7344" y1="-6185.9668" x2="501.8038" y2="-6182.3955" gradientTransform="matrix(0.9898 -0.1425 -0.1425 -0.9898 -1349.7611 -6033.0518)">
						<stop  offset="0" style="stop-color:#145A9F"/>
						<stop  offset="1" style="stop-color:#1D2E62"/>
					</linearGradient>
					<polygon class="st54" points="28,15.8 28.6,15.2 28.6,17.2 28,17.3 					"/>
				</g>
			</g>
			<path d="M23.6,20.9c0,0,2.1,0.7,1.2,4.4C24.8,25.3,25.2,23,23.6,20.9z"/>
			<g>
				
					<linearGradient id="SVGID_11_" gradientUnits="userSpaceOnUse" x1="54.8236" y1="-6310.356" x2="55.018" y2="-6312.8838" gradientTransform="matrix(0.9664 -0.2569 -0.2569 -0.9664 -1653.5206 -6066.2041)">
					<stop  offset="0" style="stop-color:#145A9F"/>
					<stop  offset="1" style="stop-color:#1D2E62"/>
				</linearGradient>
				<polygon class="st55" points="20.3,18.9 20.8,18.3 21.3,20.1 20.7,20.3 				"/>
				
					<linearGradient id="SVGID_12_" gradientUnits="userSpaceOnUse" x1="52.6294" y1="-6315.7886" x2="60.1475" y2="-6320.3579" gradientTransform="matrix(0.9664 -0.2569 -0.2569 -0.9664 -1653.5206 -6066.2041)">
					<stop  offset="0" style="stop-color:#145A9F"/>
					<stop  offset="1" style="stop-color:#1D2E62"/>
				</linearGradient>
				<path class="st56" d="M23.4,25.6c-0.4,1.5,1.3,2.9,3.2,3s3.9-0.6,4.6-2.5c0.6-1.9-2.3-0.9-2.3-0.9L23.4,25.6z"/>
				<g>
					<path class="st52" d="M28.7,27.9c-0.5,0.1-1,0.2-1.6,0.2c-0.6,0-1.1-0.2-1.5-0.4l0,0c-0.4-0.2-0.7-0.5-1.1-0.9
						c-0.3-0.3-0.5-0.8-0.8-1.3c-0.2-0.5-0.4-1-0.6-1.5c-0.2-0.5-0.3-1-0.5-1.5c-0.1-0.4-0.2-0.7-0.3-1.1l-0.7,0l-0.9-3.1l5.4-1
						l0,0.1l3.8-0.7l0.3,0.8c0.2,0.4,0.4,0.9,0.6,1.4c0.2,0.5,0.4,1.1,0.5,1.6c0.2,0.6,0.3,1.2,0.4,1.8c0.1,0.6,0.1,1.1,0.1,1.6
						c0,0.3-0.1,0.7-0.3,1.1c-0.2,0.4-0.3,0.7-0.5,1c-0.2,0.3-0.4,0.6-0.6,0.8l0,0C29.9,27.4,29.4,27.7,28.7,27.9z M26.5,25.7
						c0.2,0.1,0.5,0.2,0.7,0.2c0.3,0,0.6,0,0.9-0.1c0.3-0.1,0.6-0.2,0.8-0.4c0.1-0.1,0.2-0.2,0.3-0.5c0.1-0.2,0.3-0.5,0.4-0.7
						c0.1-0.3,0.1-0.4,0.1-0.4c0-0.3,0-0.7-0.1-1.2c-0.1-0.5-0.2-1-0.3-1.5c-0.1-0.5-0.3-1-0.5-1.5c-0.1-0.2-0.1-0.3-0.2-0.5
						l-0.4,0.1c0.1,0.2,0.2,0.4,0.2,0.7c0.1,0.3,0.2,0.7,0.3,0.9l0,0c0.1,0.3,0.2,0.6,0.3,0.9c0.2,0.9,0.3,1.6,0.3,2.1
						c0,0.3-0.1,0.6-0.2,0.9c-0.3,0.6-0.7,0.8-1,0.8c-0.4,0.1-1.1,0.1-1.7-0.8c-0.1-0.2-0.3-0.4-0.6-1.2c-0.2-0.5-0.4-1.1-0.7-1.8
						c-0.2-0.7-0.4-1.3-0.6-1.9c0,0,0,0,0,0l-0.2,0l0,0.3c0.1,0.5,0.2,1.1,0.4,1.8c0.1,0.4,0.3,0.9,0.4,1.4c0.2,0.4,0.3,0.9,0.5,1.3
						c0.2,0.4,0.4,0.7,0.5,0.9C26.4,25.6,26.5,25.7,26.5,25.7z M28.2,23.5L28.2,23.5L28.2,23.5z"/>
				</g>
				<g>
					<path d="M25.3,18.3c0.1,0.3,0.1,0.6,0.2,1c0.1,0.6,0.3,1.2,0.6,1.8c0.2,0.7,0.4,1.3,0.6,1.8c0.2,0.5,0.4,0.8,0.5,1
						c0.2,0.3,0.5,0.4,0.6,0.4c0.1,0,0.2-0.1,0.3-0.3c0.1-0.1,0.1-0.3,0.1-0.5c0-0.4,0-0.9-0.2-1.7c-0.1-0.3-0.2-0.6-0.3-0.9
						c-0.1-0.3-0.2-0.6-0.3-0.9c-0.1-0.3-0.2-0.7-0.4-1.1c-0.1-0.4-0.2-0.6-0.3-0.8l2.5-0.5c0.2,0.4,0.3,0.8,0.5,1.3s0.3,1,0.5,1.6
						c0.2,0.6,0.3,1.1,0.4,1.6c0.1,0.5,0.1,1,0.1,1.4c0,0.2-0.1,0.5-0.2,0.8c-0.1,0.3-0.3,0.6-0.4,0.9c-0.2,0.3-0.3,0.5-0.5,0.6
						c-0.3,0.3-0.7,0.5-1.2,0.7c-0.4,0.1-0.8,0.1-1.2,0.1c-0.4,0-0.8-0.1-1.1-0.3c-0.2-0.1-0.5-0.3-0.7-0.6
						c-0.2-0.3-0.4-0.7-0.6-1.1s-0.4-0.9-0.6-1.4c-0.2-0.5-0.3-1-0.4-1.4c-0.2-0.7-0.3-1.4-0.4-1.9l-0.8,0l-0.3-1.1L25.3,18.3z"/>
				</g>
				<path d="M29.5,26.1c0.3-0.3,0.9-0.9,1.2-2c0.1-0.3,0.1-0.6,0.1-0.9c0.1-1.8-1.4-5.5-1.4-5.5l-0.5,0.1c0,0,0.9,1.3,1.4,3.8
					S30.2,25,29.5,26.1z"/>
				<path d="M24.9,18.4l0.4-0.1c0,0,0.9,3.7,1.6,5c0.7,1.3,1,0.9,1,0.9S27,25,26.2,22.4C25.4,19.7,24.9,18.4,24.9,18.4z"/>
				<polygon points="29.2,17.7 26.8,18.1 27,18.6 29.4,18 				"/>
				<polygon points="25.2,18.6 22.2,19.1 22.1,18.9 25.1,18.4 				"/>
			</g>
			<g>
				
					<linearGradient id="SVGID_13_" gradientUnits="userSpaceOnUse" x1="50.7794" y1="-6316.7153" x2="53.7353" y2="-6319.4409" gradientTransform="matrix(0.9664 -0.2569 -0.2569 -0.9664 -1653.5206 -6066.2041)">
					<stop  offset="0" style="stop-color:#145A9F"/>
					<stop  offset="1" style="stop-color:#1D2E62"/>
				</linearGradient>
				<path class="st58" d="M25,25.4c-0.7,2.5-2.7,4.4-5.4,4.3s-3.6-3.6-2.7-6.2c0.9-2.6,0.7,3.5,0.7,3.5l1.5,1.1l2,0l1.7-0.8
					c0,0,1.6-1.8,1.6-1.9C24.4,25.4,24.9,25.4,25,25.4L25,25.4L25,25.4z"/>
				<g>
					<path class="st52" d="M21.7,28.6c-0.9,0.2-1.8,0.2-2.7-0.1c-2-0.7-2.9-2.7-2.4-4.9c0.4-1.6,1.4-2.9,2.6-3.6
						c1-0.6,2.2-0.7,3.3-0.3c1,0.3,1.8,1,2.3,2c0.6,1.2,0.5,2.8-0.1,4.3C24.2,27.4,23,28.3,21.7,28.6z M21,22.1
						c-0.1,0-0.3,0.1-0.4,0.2c-0.7,0.4-1.2,1.1-1.4,2c-0.3,1.1,0.2,1.7,0.8,1.9c0.8,0.3,2.1-0.1,2.5-1.2c0.3-0.8,0.4-1.7,0.1-2.2
						c-0.2-0.3-0.4-0.6-0.7-0.7l0,0C21.6,22,21.3,22,21,22.1z"/>
				</g>
				<g>
					<path d="M22.2,20.6c-1.7-0.5-3.7,0.6-4.3,3.1c-0.4,1.7,0.4,3,1.6,3.4c1.4,0.5,3.4-0.2,4.1-1.9C24.4,23.2,23.8,21.2,22.2,20.6z
						 M21.9,24c-0.7,0.4-2.3,0.5-2.6-0.9s1.4-1.8,1.4-1.8s-1.3,1.3,0.1,1.6c1.4,0.3,1.2-1,1.2-1.2C22.8,22,22.7,23.6,21.9,24z"/>
				</g>
				<path d="M21.8,24.6c-0.7,0.4-2.3,0.5-2.6-0.9s1.3-2.1,1.3-2.1s-1.2,1.7,0.3,2c1.3,0.2,1.5-1.1,1.5-1.4
					C23,22.4,22.6,24.2,21.8,24.6z"/>
				<path d="M22,22.7c0,0,0-0.3-0.2-0.5l0.3-0.5c0,0,0.1,0.2,0,0.6C22,22.7,22,22.7,22,22.7z"/>
				<path d="M20.8,21.4l0.1,0.5c-0.4,0.1-0.7,0.7-0.4,1c0.3,0.3-0.5-0.5-0.5-0.5c0,0,0.1-0.4,0.2-0.5c0.1-0.1,0.4-0.3,0.4-0.3
					C20.6,21.5,20.7,21.3,20.8,21.4"/>
				<path class="st63" d="M21.9,24c-0.7,0.4-2.3,0.5-2.6-0.9c-0.3-1.5,1.4-1.8,1.4-1.8s-1.3,1.4,0.1,1.6c1.3,0.2,1.2-1,1.2-1.2
					C22.8,22,22.7,23.6,21.9,24z"/>
				<path d="M17.8,23.8c0,0,0.9-3.7,3.9-3.2s2.3,3.7,2,4.4c0,0,0.5-3-1.8-3.8C19.2,20.3,17.8,23.8,17.8,23.8z"/>
			</g>
			<g>
				<g>
					<g>
						<path class="st52" d="M40.7,27.6l-4.6-1.1l0.8-6.4l-3.2-0.5l0.9-4.1l10.3,1.2L44.3,21l-2.6-0.3L40.7,27.6z M38.6,24.8
							c0.1,0,0.1,0,0.2,0l0.9-6.6l-0.3,0L38.6,24.8z"/>
					</g>
					<g>
						<path d="M40.7,19.2L39.7,26l-0.3-0.1c-0.2,0-0.5-0.1-0.8-0.2c-0.3-0.1-0.6-0.1-0.8-0.2s-0.4-0.1-0.5-0.2l0.8-6.5L35,18.3
							l0.4-2l8.1,0.9l-0.3,2.2L40.7,19.2z"/>
					</g>
					<polygon points="42.5,19.4 42.7,17.2 43.5,17.3 43.2,19.5 					"/>
					<polygon points="40.7,19.2 40,19.8 39,25.9 39.7,26 					"/>
					<polygon class="st53" points="44.3,21 43.2,21.7 41.6,21.6 41.7,20.7 					"/>
					<polygon points="35.4,16.7 35.4,16.4 43.5,17.3 43.3,17.6 					"/>
				</g>
				
					<linearGradient id="SVGID_14_" gradientUnits="userSpaceOnUse" x1="537.0217" y1="-6184.7769" x2="538.8941" y2="-6179.3154" gradientTransform="matrix(0.991 -0.1336 -0.1336 -0.991 -1324.9381 -6037.2324)">
					<stop  offset="0" style="stop-color:#145A9F"/>
					<stop  offset="1" style="stop-color:#1D2E62"/>
				</linearGradient>
				<polygon class="st59" points="33.9,15.9 33.1,20.1 33.7,19.5 34.6,15.4 				"/>
				<g>
					<polygon class="st53" points="36.9,20.1 33.7,19.5 33.1,20.1 36.4,20.5 36.4,20.5 					"/>
					
						<linearGradient id="SVGID_15_" gradientUnits="userSpaceOnUse" x1="539.5304" y1="-6185.0176" x2="539.5304" y2="-6191.4902" gradientTransform="matrix(0.991 -0.1336 -0.1336 -0.991 -1324.9381 -6037.2324)">
						<stop  offset="0" style="stop-color:#145A9F"/>
						<stop  offset="1" style="stop-color:#1D2E62"/>
					</linearGradient>
					<polygon class="st60" points="36.4,20.5 35.5,27.1 36.1,26.5 36.9,20.1 					"/>
				</g>
				<polygon class="st53" points="40.1,27.9 40.7,27.6 36.1,26.5 35.5,27.1 				"/>
			</g>
			<g>
				<path class="st52" d="M15.8,34l-5.1-7.9l-0.9,0.5l-2.7-3.9L13,19l4.3,8.3l3-2.3l2.7,4.5L15.8,34z M11.4,23.1l5.1,7.9l3.5-2.1
					l-0.3-0.4l-3.1,2.4l-4.4-8.5l-2,1.2l0.1,0.2L11.4,23.1z"/>
				<polygon class="st67" points="21.5,28.9 20,26.4 16.9,28.8 12.5,20.4 8.7,22.8 10.3,24.7 11,24.3 16.1,32.2 				"/>
				<polygon class="st68" points="11.9,20.7 16.5,28.6 16.9,28.8 12.5,20.4 				"/>
				<polygon points="20,27.7 20.9,29.3 21.5,28.9 20.6,27.4 20.2,27.6 				"/>
				<path class="st53" d="M23.1,29.6l-0.7,0.9l-7.1,4.5c0,0,0.4-0.8,0.5-0.9C15.9,33.9,23.1,29.6,23.1,29.6z"/>
				<path class="st68" d="M12.3,21.4c0,0-3.3,1.9-3.3,1.9l-0.4-0.5l3.9-2.4l-0.3,0.7L12.3,21.4z"/>
				<g>
					
						<linearGradient id="SVGID_16_" gradientUnits="userSpaceOnUse" x1="332.3571" y1="-6226.2026" x2="333.9796" y2="-6226.2026" gradientTransform="matrix(0.9833 -0.1816 -0.1816 -0.9833 -1448.3921 -6035.1772)">
						<stop  offset="0" style="stop-color:#145A9F"/>
						<stop  offset="1" style="stop-color:#1D2E62"/>
					</linearGradient>
					<polygon class="st61" points="10.7,26.1 9.8,26.7 9.8,26.7 9.3,27.5 9.9,27 9.9,27 					"/>
					
						<linearGradient id="SVGID_17_" gradientUnits="userSpaceOnUse" x1="333.6298" y1="-6231.3984" x2="330.5432" y2="-6220.0811" gradientTransform="matrix(0.9833 -0.1816 -0.1816 -0.9833 -1448.3921 -6035.1772)">
						<stop  offset="0" style="stop-color:#145A9F"/>
						<stop  offset="1" style="stop-color:#1D2E62"/>
					</linearGradient>
					<polygon class="st62" points="7.1,22.8 6.5,23.5 9.3,27.5 9.3,27.5 9.8,26.7 					"/>
					
						<linearGradient id="SVGID_18_" gradientUnits="userSpaceOnUse" x1="332.848" y1="-6224.3149" x2="335.1096" y2="-6229.8364" gradientTransform="matrix(0.9833 -0.1816 -0.1816 -0.9833 -1448.3921 -6035.1772)">
						<stop  offset="0" style="stop-color:#145A9F"/>
						<stop  offset="1" style="stop-color:#1D2E62"/>
					</linearGradient>
					<polygon class="st64" points="15.8,34 10.7,26.1 9.9,27 15.3,34.9 					"/>
				</g>
			</g>
			<g>
				
					<linearGradient id="SVGID_19_" gradientUnits="userSpaceOnUse" x1="501.8238" y1="-6192.4272" x2="501.5377" y2="-6195.7817" gradientTransform="matrix(0.9898 -0.1425 -0.1425 -0.9898 -1349.7611 -6033.0518)">
					<stop  offset="0" style="stop-color:#145A9F"/>
					<stop  offset="1" style="stop-color:#1D2E62"/>
				</linearGradient>
				<polygon class="st65" points="29.4,25.4 29.4,28.7 30.1,28.1 29.9,24.7 				"/>
				<g>
					<g>
						<path class="st52" d="M36.1,27.8L32,28l-0.2,0.3l0-0.3l-1.7,0.1l-0.6-9.9l-0.9,0.3l0-3.3l5.5-1.4l0,8.9l1.8-0.2L36.1,27.8z
							 M33.4,25.6l0.4,0l0-0.6l0,0L33.4,25.6z M31.7,16.8l0.1,1.8l0-1.8L31.7,16.8z"/>
						<polyline class="st67" points="34.9,26.4 34.8,23.5 32.9,23.7 33,23.7 32.9,15 29.7,15.8 29.7,16.7 30.5,16.4 31.2,26.6 
													"/>
						<polygon class="st68" points="32.9,23.7 32.6,23.8 32.3,15.2 32.9,15 						"/>
						<polygon class="st68" points="32.6,15.5 29.7,16.2 29.7,15.8 32.4,15.2 32.5,15.5 						"/>
						<polygon points="34.3,23.5 34.8,23.5 34.9,26.4 34.3,26.5 						"/>
						<polygon class="st53" points="35.2,28.4 29.4,28.7 30.1,28.1 36.1,27.8 						"/>
					</g>
					
						<linearGradient id="SVGID_20_" gradientUnits="userSpaceOnUse" x1="501.7344" y1="-6185.9668" x2="501.8038" y2="-6182.3955" gradientTransform="matrix(0.9898 -0.1425 -0.1425 -0.9898 -1349.7611 -6033.0518)">
						<stop  offset="0" style="stop-color:#145A9F"/>
						<stop  offset="1" style="stop-color:#1D2E62"/>
					</linearGradient>
					<polygon class="st69" points="28,15.8 28.6,15.2 28.6,17.2 28,17.3 					"/>
				</g>
			</g>
			<path d="M23.6,20.9c0,0,2.1,0.7,1.2,4.4C24.8,25.3,25.2,23,23.6,20.9z"/>
			<g>
				
					<linearGradient id="SVGID_21_" gradientUnits="userSpaceOnUse" x1="54.8236" y1="-6310.356" x2="55.018" y2="-6312.8838" gradientTransform="matrix(0.9664 -0.2569 -0.2569 -0.9664 -1653.5206 -6066.2041)">
					<stop  offset="0" style="stop-color:#145A9F"/>
					<stop  offset="1" style="stop-color:#1D2E62"/>
				</linearGradient>
				<polygon class="st70" points="20.3,18.9 20.8,18.3 21.3,20.1 20.7,20.3 				"/>
				
					<linearGradient id="SVGID_22_" gradientUnits="userSpaceOnUse" x1="52.6294" y1="-6315.7886" x2="60.1475" y2="-6320.3579" gradientTransform="matrix(0.9664 -0.2569 -0.2569 -0.9664 -1653.5206 -6066.2041)">
					<stop  offset="0" style="stop-color:#145A9F"/>
					<stop  offset="1" style="stop-color:#1D2E62"/>
				</linearGradient>
				<path class="st71" d="M23.4,25.6c-0.4,1.5,1.3,2.9,3.2,3s3.9-0.6,4.6-2.5c0.6-1.9-2.3-0.9-2.3-0.9L23.4,25.6z"/>
				<g>
					<path class="st52" d="M28.7,27.9c-0.5,0.1-1,0.2-1.6,0.2c-0.6,0-1.1-0.2-1.5-0.4l0,0c-0.4-0.2-0.7-0.5-1.1-0.9
						c-0.3-0.3-0.5-0.8-0.8-1.3c-0.2-0.5-0.4-1-0.6-1.5c-0.2-0.5-0.3-1-0.5-1.5c-0.1-0.4-0.2-0.7-0.3-1.1l-0.7,0l-0.9-3.1l5.4-1
						l0,0.1l3.8-0.7l0.3,0.8c0.2,0.4,0.4,0.9,0.6,1.4c0.2,0.5,0.4,1.1,0.5,1.6c0.2,0.6,0.3,1.2,0.4,1.8c0.1,0.6,0.1,1.1,0.1,1.6
						c0,0.3-0.1,0.7-0.3,1.1c-0.2,0.4-0.3,0.7-0.5,1c-0.2,0.3-0.4,0.6-0.6,0.8l0,0C29.9,27.4,29.4,27.7,28.7,27.9z M26.5,25.7
						c0.2,0.1,0.5,0.2,0.7,0.2c0.3,0,0.6,0,0.9-0.1c0.3-0.1,0.6-0.2,0.8-0.4c0.1-0.1,0.2-0.2,0.3-0.5c0.1-0.2,0.3-0.5,0.4-0.7
						c0.1-0.3,0.1-0.4,0.1-0.4c0-0.3,0-0.7-0.1-1.2c-0.1-0.5-0.2-1-0.3-1.5c-0.1-0.5-0.3-1-0.5-1.5c-0.1-0.2-0.1-0.3-0.2-0.5
						l-0.4,0.1c0.1,0.2,0.2,0.4,0.2,0.7c0.1,0.3,0.2,0.7,0.3,0.9l0,0c0.1,0.3,0.2,0.6,0.3,0.9c0.2,0.9,0.3,1.6,0.3,2.1
						c0,0.3-0.1,0.6-0.2,0.9c-0.3,0.6-0.7,0.8-1,0.8c-0.4,0.1-1.1,0.1-1.7-0.8c-0.1-0.2-0.3-0.4-0.6-1.2c-0.2-0.5-0.4-1.1-0.7-1.8
						c-0.2-0.7-0.4-1.3-0.6-1.9c0,0,0,0,0,0l-0.2,0l0,0.3c0.1,0.5,0.2,1.1,0.4,1.8c0.1,0.4,0.3,0.9,0.4,1.4c0.2,0.4,0.3,0.9,0.5,1.3
						c0.2,0.4,0.4,0.7,0.5,0.9C26.4,25.6,26.5,25.7,26.5,25.7z M28.2,23.5L28.2,23.5L28.2,23.5z"/>
				</g>
				<g>
					<path class="st67" d="M25.3,18.3c0.1,0.3,0.1,0.6,0.2,1c0.1,0.6,0.3,1.2,0.6,1.8c0.2,0.7,0.4,1.3,0.6,1.8
						c0.2,0.5,0.4,0.8,0.5,1c0.2,0.3,0.5,0.4,0.6,0.4c0.1,0,0.2-0.1,0.3-0.3c0.1-0.1,0.1-0.3,0.1-0.5c0-0.4,0-0.9-0.2-1.7
						c-0.1-0.3-0.2-0.6-0.3-0.9c-0.1-0.3-0.2-0.6-0.3-0.9c-0.1-0.3-0.2-0.7-0.4-1.1c-0.1-0.4-0.2-0.6-0.3-0.8l2.5-0.5
						c0.2,0.4,0.3,0.8,0.5,1.3s0.3,1,0.5,1.6c0.2,0.6,0.3,1.1,0.4,1.6c0.1,0.5,0.1,1,0.1,1.4c0,0.2-0.1,0.5-0.2,0.8
						c-0.1,0.3-0.3,0.6-0.4,0.9c-0.2,0.3-0.3,0.5-0.5,0.6c-0.3,0.3-0.7,0.5-1.2,0.7c-0.4,0.1-0.8,0.1-1.2,0.1
						c-0.4,0-0.8-0.1-1.1-0.3c-0.2-0.1-0.5-0.3-0.7-0.6c-0.2-0.3-0.4-0.7-0.6-1.1s-0.4-0.9-0.6-1.4c-0.2-0.5-0.3-1-0.4-1.4
						c-0.2-0.7-0.3-1.4-0.4-1.9l-0.8,0l-0.3-1.1L25.3,18.3z"/>
				</g>
				<path class="st68" d="M29.5,26.1c0.3-0.3,0.9-0.9,1.2-2c0.1-0.3,0.1-0.6,0.1-0.9c0.1-1.8-1.4-5.5-1.4-5.5l-0.5,0.1
					c0,0,0.9,1.3,1.4,3.8S30.2,25,29.5,26.1z"/>
				<path class="st68" d="M24.9,18.4l0.4-0.1c0,0,0.9,3.7,1.6,5c0.7,1.3,1,0.9,1,0.9S27,25,26.2,22.4C25.4,19.7,24.9,18.4,24.9,18.4
					z"/>
				<polygon class="st68" points="29.2,17.7 26.8,18.1 27,18.6 29.4,18 				"/>
				<polygon class="st68" points="25.2,18.6 22.2,19.1 22.1,18.9 25.1,18.4 				"/>
			</g>
			<g>
				
					<linearGradient id="SVGID_23_" gradientUnits="userSpaceOnUse" x1="50.7794" y1="-6316.7153" x2="53.7353" y2="-6319.4409" gradientTransform="matrix(0.9664 -0.2569 -0.2569 -0.9664 -1653.5206 -6066.2041)">
					<stop  offset="0" style="stop-color:#145A9F"/>
					<stop  offset="1" style="stop-color:#1D2E62"/>
				</linearGradient>
				<path class="st73" d="M25,25.4c-0.7,2.5-2.7,4.4-5.4,4.3s-3.6-3.6-2.7-6.2c0.9-2.6,0.7,3.5,0.7,3.5l1.5,1.1l2,0l1.7-0.8
					c0,0,1.6-1.8,1.6-1.9C24.4,25.4,24.9,25.4,25,25.4L25,25.4L25,25.4z"/>
				<g>
					<path class="st52" d="M21.7,28.6c-0.9,0.2-1.8,0.2-2.7-0.1c-2-0.7-2.9-2.7-2.4-4.9c0.4-1.6,1.4-2.9,2.6-3.6
						c1-0.6,2.2-0.7,3.3-0.3c1,0.3,1.8,1,2.3,2c0.6,1.2,0.5,2.8-0.1,4.3C24.2,27.4,23,28.3,21.7,28.6z M21,22.1
						c-0.1,0-0.3,0.1-0.4,0.2c-0.7,0.4-1.2,1.1-1.4,2c-0.3,1.1,0.2,1.7,0.8,1.9c0.8,0.3,2.1-0.1,2.5-1.2c0.3-0.8,0.4-1.7,0.1-2.2
						c-0.2-0.3-0.4-0.6-0.7-0.7l0,0C21.6,22,21.3,22,21,22.1z"/>
				</g>
				<g>
					<path class="st67" d="M22.2,20.6c-1.7-0.5-3.7,0.6-4.3,3.1c-0.4,1.7,0.4,3,1.6,3.4c1.4,0.5,3.4-0.2,4.1-1.9
						C24.4,23.2,23.8,21.2,22.2,20.6z M21.9,24c-0.7,0.4-2.3,0.5-2.6-0.9s1.4-1.8,1.4-1.8s-1.3,1.3,0.1,1.6c1.4,0.3,1.2-1,1.2-1.2
						C22.8,22,22.7,23.6,21.9,24z"/>
				</g>
				<path class="st68" d="M21.8,24.6c-0.7,0.4-2.3,0.5-2.6-0.9s1.3-2.1,1.3-2.1s-1.2,1.7,0.3,2c1.3,0.2,1.5-1.1,1.5-1.4
					C23,22.4,22.6,24.2,21.8,24.6z"/>
				<path class="st68" d="M22,22.7c0,0,0-0.3-0.2-0.5l0.3-0.5c0,0,0.1,0.2,0,0.6C22,22.7,22,22.7,22,22.7z"/>
				<path class="st68" d="M20.8,21.4l0.1,0.5c-0.4,0.1-0.7,0.7-0.4,1c0.3,0.3-0.5-0.5-0.5-0.5c0,0,0.1-0.4,0.2-0.5
					c0.1-0.1,0.4-0.3,0.4-0.3C20.6,21.5,20.7,21.3,20.8,21.4"/>
				<path class="st63" d="M21.9,24c-0.7,0.4-2.3,0.5-2.6-0.9c-0.3-1.5,1.4-1.8,1.4-1.8s-1.3,1.4,0.1,1.6c1.3,0.2,1.2-1,1.2-1.2
					C22.8,22,22.7,23.6,21.9,24z"/>
				<path class="st68" d="M17.8,23.8c0,0,0.9-3.7,3.9-3.2s2.3,3.7,2,4.4c0,0,0.5-3-1.8-3.8C19.2,20.3,17.8,23.8,17.8,23.8z"/>
			</g>
			<g>
				<g>
					<g>
						<path class="st52" d="M40.7,27.6l-4.6-1.1l0.8-6.4l-3.2-0.5l0.9-4.1l10.3,1.2L44.3,21l-2.6-0.3L40.7,27.6z M38.6,24.8
							c0.1,0,0.1,0,0.2,0l0.9-6.6l-0.3,0L38.6,24.8z"/>
					</g>
					<g>
						<path class="st67" d="M40.7,19.2L39.7,26l-0.3-0.1c-0.2,0-0.5-0.1-0.8-0.2c-0.3-0.1-0.6-0.1-0.8-0.2s-0.4-0.1-0.5-0.2l0.8-6.5
							L35,18.3l0.4-2l8.1,0.9l-0.3,2.2L40.7,19.2z"/>
					</g>
					<polygon class="st68" points="42.5,19.4 42.7,17.2 43.5,17.3 43.2,19.5 					"/>
					<polygon class="st68" points="40.7,19.2 40,19.8 39,25.9 39.7,26 					"/>
					<polygon class="st53" points="44.3,21 43.2,21.7 41.6,21.6 41.7,20.7 					"/>
					<polygon class="st68" points="35.4,16.7 35.4,16.4 43.5,17.3 43.3,17.6 					"/>
				</g>
				
					<linearGradient id="SVGID_24_" gradientUnits="userSpaceOnUse" x1="537.0217" y1="-6184.7769" x2="538.8941" y2="-6179.3154" gradientTransform="matrix(0.991 -0.1336 -0.1336 -0.991 -1324.9381 -6037.2324)">
					<stop  offset="0" style="stop-color:#145A9F"/>
					<stop  offset="1" style="stop-color:#1D2E62"/>
				</linearGradient>
				<polygon class="st74" points="33.9,15.9 33.1,20.1 33.7,19.5 34.6,15.4 				"/>
				<g>
					<polygon class="st53" points="36.9,20.1 33.7,19.5 33.1,20.1 36.4,20.5 36.4,20.5 					"/>
					
						<linearGradient id="SVGID_25_" gradientUnits="userSpaceOnUse" x1="539.5304" y1="-6185.0176" x2="539.5304" y2="-6191.4902" gradientTransform="matrix(0.991 -0.1336 -0.1336 -0.991 -1324.9381 -6037.2324)">
						<stop  offset="0" style="stop-color:#145A9F"/>
						<stop  offset="1" style="stop-color:#1D2E62"/>
					</linearGradient>
					<polygon class="st75" points="36.4,20.5 35.5,27.1 36.1,26.5 36.9,20.1 					"/>
				</g>
				<polygon class="st53" points="40.1,27.9 40.7,27.6 36.1,26.5 35.5,27.1 				"/>
			</g>
		</g>
		<polygon class="st68" points="34.3,23.5 34.8,23.5 34.9,26.4 34.3,26.5 		"/>
	</g>
	<g>
		<linearGradient id="SVGID_26_" gradientUnits="userSpaceOnUse" x1="26.5245" y1="27.6987" x2="26.5245" y2="54.5372">
			<stop  offset="0" style="stop-color:#F1B653"/>
			<stop  offset="0.3232" style="stop-color:#EFB450"/>
			<stop  offset="0.5209" style="stop-color:#EAAC48"/>
			<stop  offset="0.6849" style="stop-color:#E19F3A"/>
			<stop  offset="0.8295" style="stop-color:#D48C25"/>
			<stop  offset="0.9579" style="stop-color:#C4750C"/>
		</linearGradient>
		<path class="st76" d="M48.9,52.7H4.2c-1.9,0-3.4-1.7-3.4-3.8V30.5c0-2.1,1.5-3.8,3.4-3.8h44.7c1.9,0,3.4,1.7,3.4,3.8v18.3
			C52.3,51,50.8,52.7,48.9,52.7z"/>
		<path class="st2" d="M48.9,53.4H4.2c-2.3,0-4.2-2-4.2-4.6V30.5C0,28,1.9,26,4.2,26h44.7c2.3,0,4.2,2,4.2,4.6v18.3
			C53,51.4,51.2,53.4,48.9,53.4z M4.2,27.5c-1.5,0-2.7,1.4-2.7,3.1v18.3c0,1.7,1.2,3.1,2.7,3.1h44.7c1.5,0,2.7-1.4,2.7-3.1V30.5
			c0-1.7-1.2-3.1-2.7-3.1H4.2z"/>
	</g>
	<path class="st232" d="M27,33.5l1.6,3.2c0.1,0.2,0.3,0.4,0.6,0.4l3.5,0.5c0.6,0.1,0.9,0.8,0.4,1.3l-2.5,2.5
		c-0.2,0.2-0.3,0.4-0.2,0.7l0.6,3.5c0.1,0.6-0.5,1.1-1.1,0.8l-3.1-1.7c-0.2-0.1-0.5-0.1-0.7,0l-3.1,1.7c-0.6,0.3-1.2-0.2-1.1-0.8
		l0.6-3.5c0-0.2,0-0.5-0.2-0.7l-2.5-2.5c-0.4-0.4-0.2-1.2,0.4-1.3l3.5-0.5c0.2,0,0.5-0.2,0.6-0.4l1.6-3.2
		C25.9,32.9,26.7,32.9,27,33.5z"/>
</g>
</svg>
