<svg width="100" height="100" xmlns="http://www.w3.org/2000/svg" xml:space="preserve" version="1.1">

 <g>
  <title>Layer 1</title>
  <g id="svg_1">
   <path id="svg_2" d="m91.1,12.6l-80.8,0c-2,0 -3.5,1.5 -3.5,3.5l0,11.3c0,2 1.5,3.5 3.5,3.5l2,0l0,55.3c0,2 1.5,3.5 3.5,3.5l69.7,0c2,0 3.5,-1.5 3.5,-3.5l0,-55.3l2.1,0c1.9,0 3.5,-1.6 3.5,-3.5l0,-11.3c0,-2 -1.5,-3.5 -3.5,-3.5zm-7.1,72.1l-66.7,0l0,-53.8l66.7,0l0,53.8zm5.6,-58.8l-4.1,0l-69.7,0l-4,0l0,-8.3l77.8,0c0,0 0,8.3 0,8.3z"/>
   <path id="svg_3" d="m32.6,63.1l36.1,0c2,0 3.5,-1.5 3.5,-3.5l0,-9c0,-2 -1.5,-3.5 -3.5,-3.5l-36.1,0c-1.9,0 -3.5,1.6 -3.5,3.5l0,9c0,2 1.5,3.5 3.5,3.5zm1.5,-11l33.1,0l0,6l-33.1,0l0,-6z"/>
  </g>
  <line stroke-width="7" stroke-linecap="undefined" stroke-linejoin="undefined" id="svg_6" y2="10" x2="97.1698" y1="93.01886" x1="7.73584" stroke="#000" fill="none"/>
 </g>
</svg>